name C:\Users\u0101727\Documents\MyRepositories\predictcpgait/OpenSimModel/subject1/IK/Gait/KS_Gait_average_r.mot
datacolumns 22
datarows 21
range 0.34166667 0.54873737
endheader
time	lower_torso_RX	lower_torso_RY	lower_torso_RZ	lower_torso_TX	lower_torso_TY	lower_torso_TZ	hip_flex_l	hip_add_l	hip_rot_l	hip_flex_r	hip_add_r	hip_rot_r	knee_flex_l	knee_flex_r	ankle_flex_l	ankle_flex_r	subt_angle_l	subt_angle_r	lumbar_pitch	lumbar_roll	lumbar_yaw	
          0.34166667	        -10.17128735	          2.55981688	          1.86824146	          0.34286241	          0.82833555	          0.02136654	         32.26692131	        -14.31430217	         15.19718503	         14.44221155	         16.52630407	         12.53525078	         69.19531126	         41.39247354	         17.69405483	         10.71049801	        -17.79036950	        -29.13762349	        -36.77233852	          7.16539453	         10.04186657	
          0.35202020	        -10.09554845	          2.14844467	          1.70024966	          0.35215648	          0.82894523	          0.02188983	         33.60359689	        -14.19191860	         14.89714180	         13.77959315	         16.53624370	         12.83932095	         67.37807956	         41.27054241	         17.23413082	         10.78309684	        -16.99382067	        -28.75336289	        -36.67074458	          6.75538800	         10.16566315	
          0.36237374	        -10.03108628	          1.74114561	          1.56277388	          0.36154246	          0.82930047	          0.02236188	         34.85027850	        -14.09170309	         14.60472535	         13.11240464	         16.54685836	         13.12256074	         65.44296356	         41.21764468	         16.62435180	         10.90433291	        -16.05140807	        -28.34003742	        -36.58011244	          6.35061190	         10.28700181	
          0.37272727	         -9.97865527	          1.33625156	          1.45799846	          0.37104107	          0.82939541	          0.02278401	         35.99711924	        -14.01448943	         14.31347046	         12.42999392	         16.56202489	         13.39683480	         63.41279057	         41.22544756	         15.86075865	         11.08267651	        -15.01570094	        -27.90985111	        -36.50146473	          5.95162707	         10.40701177	
          0.38308081	         -9.93827806	          0.93214093	          1.38830569	          0.38067391	          0.82922631	          0.02315648	         37.03518070	        -13.95947679	         14.01667616	         11.72101261	         16.58461460	         13.67458962	         61.31771634	         41.28504948	         14.94586364	         11.32446781	        -13.94000142	        -27.47741028	        -36.43571946	          5.55864581	         10.52643101	
          0.39343434	         -9.90912130	          0.52744579	          1.35609001	          0.39046291	          0.82879135	          0.02347827	         37.95694397	        -13.92409097	         13.70779644	         10.97431541	         16.61609305	         13.96739518	         59.19554817	         41.38785185	         13.88962652	         11.63350579	        -12.87730328	        -27.05770584	        -36.38357269	          5.17152447	         10.64546132	
          0.40378788	         -9.88941263	          0.12129617	          1.36348385	          0.40042946	          0.82809069	          0.02374707	         38.75685264	        -13.90392141	         13.38094040	         10.18000265	         16.65622594	         14.28455712	         57.09130486	         41.52643276	         12.70987257	         12.01050586	        -11.87951928	        -26.66408682	        -36.34537179	          4.78975648	         10.76361236	
          0.41414141	         -9.87641197	         -0.28642515	          1.41200251	          0.41059334	          0.82712654	          0.02395934	         39.43181737	        -13.89271472	         13.03153430	          9.33055311	         16.70291898	         14.63192409	         55.05589085	         41.69537051	         11.43215203	         12.45240647	        -10.99678380	        -26.30644344	        -36.32093844	          4.41250115	         10.87956291	
          0.42449495	         -9.86645271	         -0.69485234	          1.50213896	          0.42097153	          0.82590346	          0.02411048	         39.98159993	        -13.88241681	         12.65715965	          8.42196135	         16.75221603	         15.01099386	         53.14387712	         41.89196731	         10.08905362	         12.95154824	        -10.27664369	        -25.98976628	        -36.30933991	          4.03866847	         10.99106955	
          0.43484848	         -9.85506643	         -1.10196709	          1.63296589	          0.43157704	          0.82442875	          0.02419507	         40.40900398	        -13.86327445	         12.25851779	          7.45476077	         16.79847151	         15.41839547	         51.41052487	         42.11681770	          8.71899558	         13.49480045	         -9.76298844	        -25.71319067	        -36.30866663	          3.66705000	         11.09495065	
          0.44520202	         -9.83719487	         -1.50452481	          1.80182539	          0.44241780	          0.82271293	          0.02420717	         40.71982716	        -13.82402333	         11.84038855	          6.43478579	         16.83469379	         15.84579514	         49.90833492	         42.37416005	          7.36453640	         14.06276100	         -9.49463321	        -25.46959028	        -36.31591370	          3.29646229	         11.18716885	
          0.45555556	         -9.80747884	         -1.89810956	          2.00419579	          0.45349570	          0.82077032	          0.02414077	         40.92255999	        -13.75220113	         11.41236797	          5.37351764	         16.85302852	         16.28024127	         48.68351563	         42.67195151	          6.07028078	         14.62920079	         -9.50354593	        -25.24575900	        -36.32705912	          2.92586642	         11.26302590	
          0.46590909	         -9.76060000	         -2.27734345	          2.23380877	          0.46480594	          0.81861969	          0.02399026	         41.02784516	        -13.63462763	         10.98911485	          4.28788566	         16.84532436	         16.70492878	         47.77279290	         43.02162201	          4.88050239	         15.16095201	         -9.81279567	        -25.02321453	        -36.33738369	          2.55444562	         11.31746848	
          0.47626263	         -9.69164569	         -2.63625566	          2.48304385	          0.47633670	          0.81628491	          0.02375104	         41.04773258	        -13.45809004	         10.58983749	          3.19946829	         16.80370987	         17.10032490	         47.20091440	         43.43748826	          3.83665574	         15.61844588	        -10.43438625	        -24.77965789	        -36.34200789	          2.18164898	         11.34548281	
          0.48661616	         -9.59646818	         -2.96878187	          2.74355839	          0.48806921	          0.81379552	          0.02341997	         40.99478597	        -13.21025737	         10.23683330	          2.13314718	         16.72111766	         17.44556011	         46.97904339	         43.93583845	          2.97499148	         15.95708012	        -11.36721857	        -24.49110838	        -36.33655660	          1.80722849	         11.34253480	
          0.49696970	         -9.47201629	         -3.26932455	          3.00704254	          0.49997827	          0.81118700	          0.02299591	         40.88111988	        -12.88081686	          9.95306307	          1.11538649	         16.59171590	         17.71995572	         47.10405440	         44.53372459	          2.32450900	         16.12953319	        -12.59548389	        -24.13468420	        -36.31781914	          1.43130126	         11.30499734	
          0.50732323	         -9.31662237	         -3.53327607	          3.26594109	          0.51203279	          0.80850060	          0.02248012	         40.71747208	        -12.46277414	          9.75897811	          0.17239660	         16.41123586	         17.90454014	         47.55861285	         45.24752075	          1.90546418	         16.08903822	        -14.08781387	        -23.69190029	        -36.28425976	          1.05445452	         11.23050593	
          0.51767677	         -9.12965318	         -3.75687998	          3.51369509	          0.52419745	          0.80578346	          0.02187566	         40.51181120	        -11.95235262	          9.67086233	         -0.66973060	         16.17617843	         17.98167597	         48.31547814	         46.09339968	          1.73240688	         15.78889642	        -15.79988506	        -23.15039452	        -36.23604480	          0.67774562	         11.11760628	
          0.52803030	         -8.91298595	         -3.93848383	          3.74529347	          0.53642938	          0.80308800	          0.02119008	         40.27028067	        -11.35359837	          9.69359279	         -1.38909771	         15.88600112	         17.93903681	         49.32892697	         47.08174426	          1.80586394	         15.19500655	        -17.66837888	        -22.51104740	        -36.17551415	          0.30321534	         10.96715808	
          0.53838384	         -8.67092169	         -4.07857421	          3.95747549	          0.54868231	          0.80046583	          0.02043473	         39.99669350	        -10.67870791	          9.81889949	         -1.97039821	         15.54331676	         17.77157354	         50.54099889	         48.21484590	          2.11373630	         14.29390970	        -19.61757174	        -21.79146426	        -36.10652517	         -0.06610949	         10.78224851	
          0.54873737	         -8.40889172	         -4.17852834	          4.14761484	          0.56091017	          0.79796847	          0.01962231	         39.69186167	         -9.94491685	         10.02943057	         -2.40117944	         15.15165829	         17.47795904	         51.89127979	         49.49011711	          2.64067520	         13.08683435	        -21.56821081	        -21.02271223	        -36.03335834	         -0.42655484	         10.56685020	
